<svg width="34" height="35" viewBox="0 0 34 35" fill="none" xmlns="http://www.w3.org/2000/svg">
<path d="M22.7521 11.472C22.2081 10.576 21.4561 9.888 20.4961 9.408C19.5681 8.928 18.4641 8.688 17.1841 8.688C14.8161 8.688 12.9441 9.456 11.5681 10.992C10.2241 12.528 9.55211 14.592 9.55211 17.184C9.55211 20.096 10.2721 22.32 11.7121 23.856C13.1841 25.36 15.3121 26.112 18.0961 26.112C21.3921 26.112 23.7441 24.624 25.1521 21.648H15.6961V14.88H33.2641V24C32.5281 25.792 31.4401 27.472 30.0001 29.04C28.5921 30.608 26.8001 31.904 24.6241 32.928C22.4481 33.92 19.9681 34.416 17.1841 34.416C13.7921 34.416 10.7841 33.696 8.16011 32.256C5.56811 30.784 3.55211 28.752 2.11211 26.16C0.704111 23.536 0.000111401 20.544 0.000111401 17.184C0.000111401 13.856 0.704111 10.896 2.11211 8.304C3.55211 5.68 5.56811 3.648 8.16011 2.208C10.7521 0.736002 13.7441 1.90735e-06 17.1361 1.90735e-06C21.3921 1.90735e-06 24.9121 1.024 27.6961 3.072C30.4801 5.12 32.2081 7.92 32.8801 11.472H22.7521Z" fill="url(#paint0_linear_19_14)"/>
<defs>
<linearGradient id="paint0_linear_19_14" x1="35.4641" y1="-0.210014" x2="-1.29882" y2="34.8109" gradientUnits="userSpaceOnUse">
<stop stop-color="#121212"/>
<stop offset="1" stop-color="#4A4849"/>
</linearGradient>
</defs>
</svg>
